<svg xmlns="http://www.w3.org/2000/svg" viewBox="0 0 96 96" width="96" height="96" role="img" aria-label="Tess, the Tessera mascot, at rest">
  <!-- GENERATED from @tessera/mascot mood data by scripts/render-masters.mjs (ADR-0046). Do not hand-edit: regenerate via the package script `render-masters`. -->
  <rect width="96" height="96" fill="#161013"/>
  <g>
    <rect x="-9" y="-9" width="18" height="18" rx="4.5" fill="#F4EDE7" opacity="0.95" transform="translate(48 15) rotate(1.5) scale(1)"/>
    <rect x="-9" y="-9" width="18" height="18" rx="4.5" fill="#F4EDE7" opacity="0.9" transform="translate(26 37) rotate(0) scale(1)"/>
    <rect x="-12" y="-12" width="24" height="24" rx="6" fill="#E4B65A" opacity="0.16" transform="translate(48 37) rotate(0) scale(1)"/>
    <rect x="-9" y="-9" width="18" height="18" rx="4.5" fill="#E4B65A" opacity="1" transform="translate(48 37) rotate(0) scale(1)"/>
    <rect x="-9" y="-9" width="18" height="18" rx="4.5" fill="#F4EDE7" opacity="0.9" transform="translate(70 37) rotate(0) scale(1)"/>
    <rect x="-9" y="-9" width="18" height="18" rx="4.5" fill="#E2A3A8" opacity="0.88" transform="translate(26 59) rotate(0) scale(1)"/>
    <rect x="-9" y="-9" width="18" height="18" rx="4.5" fill="#F4EDE7" opacity="0.92" transform="translate(48 59) rotate(0) scale(1)"/>
    <rect x="-9" y="-9" width="18" height="18" rx="4.5" fill="#C8836C" opacity="0.88" transform="translate(70 59) rotate(0) scale(1)"/>
    <rect x="-9" y="-9" width="18" height="18" rx="4.5" fill="#F4EDE7" opacity="0.85" transform="translate(36 81) rotate(0) scale(1)"/>
    <rect x="-9" y="-9" width="18" height="18" rx="4.5" fill="#F4EDE7" opacity="0.85" transform="translate(60 81) rotate(0) scale(1)"/>
  </g>
</svg>
