<svg xmlns="http://www.w3.org/2000/svg" viewBox="0 0 600 276" width="600" height="276" role="img" aria-label="Tess mood sheet — every predefined mood">
  <!-- GENERATED from @tessera/mascot mood data by scripts/render-masters.mjs (ADR-0046). Do not hand-edit: regenerate via the package script `render-masters`. -->
  <rect width="600" height="276" fill="#161013"/>
  <g>
    <g transform="translate(60 29) rotate(1.5) scale(1)"><rect x="-13" y="-11" width="26" height="22" rx="6.5" fill="#F4EDE7" opacity="0.97"/><g transform="translate(-5.6 -0.8) scale(1 1)"><rect x="-2" y="-3.5" width="4" height="7" rx="2" fill="#161013"/></g><g transform="translate(5.6 -0.8) scale(1 1)"><rect x="-2" y="-3.5" width="4" height="7" rx="2" fill="#161013"/></g></g>
    <g transform="translate(38 53) rotate(0) scale(1)"><rect x="-9" y="-9" width="18" height="18" rx="4.5" fill="#F4EDE7" opacity="0.9"/></g>
    <g transform="translate(60 53) rotate(0) scale(1)"><rect x="-12" y="-12" width="24" height="24" rx="6" fill="#E4B65A" opacity="0.16"/><rect x="-9" y="-9" width="18" height="18" rx="4.5" fill="#E4B65A" opacity="1"/></g>
    <g transform="translate(82 53) rotate(0) scale(1)"><rect x="-9" y="-9" width="18" height="18" rx="4.5" fill="#F4EDE7" opacity="0.9"/></g>
    <g transform="translate(38 75) rotate(0) scale(1)"><rect x="-9" y="-9" width="18" height="18" rx="4.5" fill="#E2A3A8" opacity="0.88"/></g>
    <g transform="translate(60 75) rotate(0) scale(1)"><rect x="-9" y="-9" width="18" height="18" rx="4.5" fill="#F4EDE7" opacity="0.92"/></g>
    <g transform="translate(82 75) rotate(0) scale(1)"><rect x="-9" y="-9" width="18" height="18" rx="4.5" fill="#C8836C" opacity="0.88"/></g>
    <g transform="translate(48 97) rotate(0) scale(1)"><rect x="-9" y="-9" width="18" height="18" rx="4.5" fill="#F4EDE7" opacity="0.85"/></g>
    <g transform="translate(72 97) rotate(0) scale(1)"><rect x="-9" y="-9" width="18" height="18" rx="4.5" fill="#F4EDE7" opacity="0.85"/></g>
    <text x="60" y="132" text-anchor="middle" font-family="ui-sans-serif, system-ui, sans-serif" font-size="10" letter-spacing="0.08em" fill="#B7A8A8">idle</text>
  </g>
  <g>
    <g transform="translate(182 28) rotate(6) scale(1)"><rect x="-13" y="-11" width="26" height="22" rx="6.5" fill="#F4EDE7" opacity="0.97"/><g transform="translate(-4 -1.6) scale(1 1.15)"><rect x="-2" y="-3.5" width="4" height="7" rx="2" fill="#161013"/></g><g transform="translate(7.2 -1.6) scale(1 1.15)"><rect x="-2" y="-3.5" width="4" height="7" rx="2" fill="#161013"/></g></g>
    <g transform="translate(158 53) rotate(-2) scale(1)"><rect x="-9" y="-9" width="18" height="18" rx="4.5" fill="#F4EDE7" opacity="0.9"/></g>
    <g transform="translate(180.5 52.5) rotate(0) scale(1)"><rect x="-12" y="-12" width="24" height="24" rx="6" fill="#E4B65A" opacity="0.16"/><rect x="-9" y="-9" width="18" height="18" rx="4.5" fill="#E4B65A" opacity="1"/></g>
    <g transform="translate(203 52) rotate(3) scale(1)"><rect x="-9" y="-9" width="18" height="18" rx="4.5" fill="#F4EDE7" opacity="0.9"/></g>
    <g transform="translate(158 75) rotate(-1) scale(1)"><rect x="-9" y="-9" width="18" height="18" rx="4.5" fill="#E2A3A8" opacity="0.88"/></g>
    <g transform="translate(180.5 75) rotate(0) scale(1)"><rect x="-9" y="-9" width="18" height="18" rx="4.5" fill="#F4EDE7" opacity="0.92"/></g>
    <g transform="translate(202.5 75) rotate(0) scale(1)"><rect x="-9" y="-9" width="18" height="18" rx="4.5" fill="#C8836C" opacity="0.88"/></g>
    <g transform="translate(169 97) rotate(0) scale(1)"><rect x="-9" y="-9" width="18" height="18" rx="4.5" fill="#F4EDE7" opacity="0.85"/></g>
    <g transform="translate(192 96.5) rotate(2) scale(1)"><rect x="-9" y="-9" width="18" height="18" rx="4.5" fill="#F4EDE7" opacity="0.85"/></g>
    <text x="180" y="132" text-anchor="middle" font-family="ui-sans-serif, system-ui, sans-serif" font-size="10" letter-spacing="0.08em" fill="#B7A8A8">curious</text>
  </g>
  <g>
    <g transform="translate(300 30.5) rotate(-1) scale(1)"><rect x="-13" y="-11" width="26" height="22" rx="6.5" fill="#F4EDE7" opacity="0.97"/><g transform="translate(-5.1 0.3) scale(1 0.8)"><rect x="-2" y="-3.5" width="4" height="7" rx="2" fill="#161013"/></g><g transform="translate(6.1 0.3) scale(1 0.8)"><rect x="-2" y="-3.5" width="4" height="7" rx="2" fill="#161013"/></g></g>
    <g transform="translate(279.5 53.5) rotate(0) scale(1)"><rect x="-9" y="-9" width="18" height="18" rx="4.5" fill="#F4EDE7" opacity="0.9"/></g>
    <g transform="translate(300 53) rotate(0) scale(0.96)"><rect x="-12" y="-12" width="24" height="24" rx="6" fill="#E4B65A" opacity="0.16"/><rect x="-9" y="-9" width="18" height="18" rx="4.5" fill="#E4B65A" opacity="1"/></g>
    <g transform="translate(320.5 53.5) rotate(0) scale(1)"><rect x="-9" y="-9" width="18" height="18" rx="4.5" fill="#F4EDE7" opacity="0.9"/></g>
    <g transform="translate(280 75) rotate(0) scale(1)"><rect x="-9" y="-9" width="18" height="18" rx="4.5" fill="#E2A3A8" opacity="0.88"/></g>
    <g transform="translate(300 75.5) rotate(0) scale(1)"><rect x="-9" y="-9" width="18" height="18" rx="4.5" fill="#F4EDE7" opacity="0.92"/></g>
    <g transform="translate(320 75) rotate(0) scale(1)"><rect x="-9" y="-9" width="18" height="18" rx="4.5" fill="#C8836C" opacity="0.88"/></g>
    <g transform="translate(290 97) rotate(0) scale(1)"><rect x="-9" y="-9" width="18" height="18" rx="4.5" fill="#F4EDE7" opacity="0.85"/></g>
    <g transform="translate(310 97) rotate(0) scale(1)"><rect x="-9" y="-9" width="18" height="18" rx="4.5" fill="#F4EDE7" opacity="0.85"/></g>
    <text x="300" y="132" text-anchor="middle" font-family="ui-sans-serif, system-ui, sans-serif" font-size="10" letter-spacing="0.08em" fill="#B7A8A8">working</text>
  </g>
  <g>
    <g transform="translate(420 29) rotate(0) scale(1)"><rect x="-13" y="-11" width="26" height="22" rx="6.5" fill="#F4EDE7" opacity="0.99"/><g transform="translate(-5.6 -0.5) scale(1 0.55)"><rect x="-2" y="-3.5" width="4" height="7" rx="2" fill="#161013"/></g><g transform="translate(5.6 -0.5) scale(1 0.55)"><rect x="-2" y="-3.5" width="4" height="7" rx="2" fill="#161013"/></g></g>
    <g transform="translate(398 53) rotate(0) scale(1)"><rect x="-9" y="-9" width="18" height="18" rx="4.5" fill="#F4EDE7" opacity="0.95"/></g>
    <g transform="translate(420 53) rotate(0) scale(1)"><rect x="-12" y="-12" width="24" height="24" rx="6" fill="#E4B65A" opacity="0.16"/><rect x="-9" y="-9" width="18" height="18" rx="4.5" fill="#E4B65A" opacity="1"/></g>
    <g transform="translate(442 53) rotate(0) scale(1)"><rect x="-9" y="-9" width="18" height="18" rx="4.5" fill="#F4EDE7" opacity="0.95"/></g>
    <g transform="translate(398 75) rotate(0) scale(1)"><rect x="-9" y="-9" width="18" height="18" rx="4.5" fill="#E2A3A8" opacity="0.94"/></g>
    <g transform="translate(420 75) rotate(0) scale(1)"><rect x="-9" y="-9" width="18" height="18" rx="4.5" fill="#F4EDE7" opacity="0.97"/></g>
    <g transform="translate(442 75) rotate(0) scale(1)"><rect x="-9" y="-9" width="18" height="18" rx="4.5" fill="#C8836C" opacity="0.94"/></g>
    <g transform="translate(409 97) rotate(0) scale(1)"><rect x="-9" y="-9" width="18" height="18" rx="4.5" fill="#F4EDE7" opacity="0.92"/></g>
    <g transform="translate(431 97) rotate(0) scale(1)"><rect x="-9" y="-9" width="18" height="18" rx="4.5" fill="#F4EDE7" opacity="0.92"/></g>
    <text x="420" y="132" text-anchor="middle" font-family="ui-sans-serif, system-ui, sans-serif" font-size="10" letter-spacing="0.08em" fill="#B7A8A8">satisfied</text>
  </g>
  <g>
    <g transform="translate(539 29) rotate(-6) scale(1)"><rect x="-13" y="-11" width="26" height="22" rx="6.5" fill="#F4EDE7" opacity="0.97"/><g transform="translate(-3.8 -0.4) scale(1 1.35)"><rect x="-2" y="-3.5" width="4" height="7" rx="2" fill="#161013"/></g><g transform="translate(7.4 -0.4) scale(1 1.35)"><rect x="-2" y="-3.5" width="4" height="7" rx="2" fill="#161013"/></g></g>
    <g transform="translate(516 53) rotate(-2) scale(1)"><rect x="-9" y="-9" width="18" height="18" rx="4.5" fill="#F4EDE7" opacity="0.9"/></g>
    <g transform="translate(540 53) rotate(0) scale(1.04)"><rect x="-12" y="-12" width="24" height="24" rx="6" fill="#E4B65A" opacity="0.16"/><rect x="-9" y="-9" width="18" height="18" rx="4.5" fill="#E4B65A" opacity="1"/></g>
    <g transform="translate(560.5 53) rotate(-3) scale(1)"><rect x="-9" y="-9" width="18" height="18" rx="4.5" fill="#F4EDE7" opacity="0.9"/></g>
    <g transform="translate(515.5 75) rotate(0) scale(1)"><rect x="-9" y="-9" width="18" height="18" rx="4.5" fill="#E2A3A8" opacity="0.88"/></g>
    <g transform="translate(539 75) rotate(0) scale(1)"><rect x="-9" y="-9" width="18" height="18" rx="4.5" fill="#F4EDE7" opacity="0.92"/></g>
    <g transform="translate(569 70) rotate(16) scale(1)"><rect x="-9" y="-9" width="18" height="18" rx="4.5" fill="#C8836C" opacity="0.95"/></g>
    <g transform="translate(526 97) rotate(0) scale(1)"><rect x="-9" y="-9" width="18" height="18" rx="4.5" fill="#F4EDE7" opacity="0.85"/></g>
    <g transform="translate(554 97) rotate(-2) scale(1)"><rect x="-9" y="-9" width="18" height="18" rx="4.5" fill="#F4EDE7" opacity="0.85"/></g>
    <text x="540" y="132" text-anchor="middle" font-family="ui-sans-serif, system-ui, sans-serif" font-size="10" letter-spacing="0.08em" fill="#B7A8A8">alarmed</text>
  </g>
  <g>
    <g transform="translate(60 166) rotate(3) scale(1)"><rect x="-13" y="-11" width="26" height="22" rx="6.5" fill="#F4EDE7" opacity="0.97"/><g transform="translate(-5.6 0.4) scale(1 0.6)"><rect x="-2" y="-3.5" width="4" height="7" rx="2" fill="#161013"/></g><g transform="translate(5.6 0.4) scale(1 0.6)"><rect x="-2" y="-3.5" width="4" height="7" rx="2" fill="#161013"/></g></g>
    <g transform="translate(35 190) rotate(-6) scale(1)"><rect x="-9" y="-9" width="18" height="18" rx="4.5" fill="#E2A3A8" opacity="0.9"/></g>
    <g transform="translate(60 188) rotate(0) scale(1.1)"><rect x="-12" y="-12" width="24" height="24" rx="6" fill="#E4B65A" opacity="0.16"/><rect x="-9" y="-9" width="18" height="18" rx="4.5" fill="#E4B65A" opacity="1"/></g>
    <g transform="translate(85 190) rotate(6) scale(1)"><rect x="-9" y="-9" width="18" height="18" rx="4.5" fill="#E2A3A8" opacity="0.9"/></g>
    <g transform="translate(36.5 213) rotate(0) scale(1)"><rect x="-9" y="-9" width="18" height="18" rx="4.5" fill="#E2A3A8" opacity="0.88"/></g>
    <g transform="translate(60 213.5) rotate(0) scale(1)"><rect x="-9" y="-9" width="18" height="18" rx="4.5" fill="#F4EDE7" opacity="0.92"/></g>
    <g transform="translate(83.5 213) rotate(0) scale(1)"><rect x="-9" y="-9" width="18" height="18" rx="4.5" fill="#C8836C" opacity="0.88"/></g>
    <g transform="translate(50 235) rotate(0) scale(1)"><rect x="-9" y="-9" width="18" height="18" rx="4.5" fill="#F4EDE7" opacity="0.85"/></g>
    <g transform="translate(70 235) rotate(0) scale(1)"><rect x="-9" y="-9" width="18" height="18" rx="4.5" fill="#F4EDE7" opacity="0.85"/></g>
    <text x="60" y="270" text-anchor="middle" font-family="ui-sans-serif, system-ui, sans-serif" font-size="10" letter-spacing="0.08em" fill="#B7A8A8">celebrating</text>
  </g>
  <g>
    <g transform="translate(180 168) rotate(8) scale(1)"><rect x="-13" y="-11" width="26" height="22" rx="6.5" fill="#F4EDE7" opacity="0.97"/><g transform="translate(-5.6 -0.8) scale(1 1.1)"><rect x="-2" y="-3.5" width="4" height="7" rx="2" fill="#161013"/></g><g transform="translate(5.6 -0.8) scale(1 1.1)"><rect x="-2" y="-3.5" width="4" height="7" rx="2" fill="#161013"/></g></g>
    <g transform="translate(158 191.5) rotate(0) scale(1)"><rect x="-9" y="-9" width="18" height="18" rx="4.5" fill="#F4EDE7" opacity="0.9"/></g>
    <g transform="translate(180 191.5) rotate(0) scale(1)"><rect x="-12" y="-12" width="24" height="24" rx="6" fill="#E4B65A" opacity="0.16"/><rect x="-9" y="-9" width="18" height="18" rx="4.5" fill="#E4B65A" opacity="1"/></g>
    <g transform="translate(202 187.5) rotate(8) scale(1)"><rect x="-9" y="-9" width="18" height="18" rx="4.5" fill="#F4EDE7" opacity="0.9"/></g>
    <g transform="translate(158 213) rotate(0) scale(1)"><rect x="-9" y="-9" width="18" height="18" rx="4.5" fill="#E2A3A8" opacity="0.88"/></g>
    <g transform="translate(180 213) rotate(0) scale(1)"><rect x="-9" y="-9" width="18" height="18" rx="4.5" fill="#F4EDE7" opacity="0.92"/></g>
    <g transform="translate(202 213) rotate(0) scale(1)"><rect x="-9" y="-9" width="18" height="18" rx="4.5" fill="#C8836C" opacity="0.88"/></g>
    <g transform="translate(168.5 235) rotate(0) scale(1)"><rect x="-9" y="-9" width="18" height="18" rx="4.5" fill="#F4EDE7" opacity="0.85"/></g>
    <g transform="translate(191.5 235) rotate(0) scale(1)"><rect x="-9" y="-9" width="18" height="18" rx="4.5" fill="#F4EDE7" opacity="0.85"/></g>
    <text x="180" y="270" text-anchor="middle" font-family="ui-sans-serif, system-ui, sans-serif" font-size="10" letter-spacing="0.08em" fill="#B7A8A8">greeting</text>
  </g>
  <g>
    <g transform="translate(298 167) rotate(-9) scale(1)"><rect x="-13" y="-11" width="26" height="22" rx="6.5" fill="#F4EDE7" opacity="0.97"/><g transform="translate(-7.4 -0.2) scale(1 1.1)"><rect x="-2" y="-3.5" width="4" height="7" rx="2" fill="#161013"/></g><g transform="translate(3.8 -0.2) scale(1 1.1)"><rect x="-2" y="-3.5" width="4" height="7" rx="2" fill="#161013"/></g></g>
    <g transform="translate(277 191) rotate(-3) scale(1)"><rect x="-9" y="-9" width="18" height="18" rx="4.5" fill="#F4EDE7" opacity="0.9"/></g>
    <g transform="translate(299.5 191) rotate(0) scale(1.02)"><rect x="-12" y="-12" width="24" height="24" rx="6" fill="#E4B65A" opacity="0.16"/><rect x="-9" y="-9" width="18" height="18" rx="4.5" fill="#E4B65A" opacity="1"/></g>
    <g transform="translate(321.5 191) rotate(-2) scale(1)"><rect x="-9" y="-9" width="18" height="18" rx="4.5" fill="#F4EDE7" opacity="0.9"/></g>
    <g transform="translate(276.5 213) rotate(-2) scale(1)"><rect x="-9" y="-9" width="18" height="18" rx="4.5" fill="#E2A3A8" opacity="0.88"/></g>
    <g transform="translate(299 213) rotate(0) scale(1)"><rect x="-9" y="-9" width="18" height="18" rx="4.5" fill="#F4EDE7" opacity="0.92"/></g>
    <g transform="translate(321 213) rotate(2) scale(1)"><rect x="-9" y="-9" width="18" height="18" rx="4.5" fill="#C8836C" opacity="0.88"/></g>
    <g transform="translate(287 235) rotate(0) scale(1)"><rect x="-9" y="-9" width="18" height="18" rx="4.5" fill="#F4EDE7" opacity="0.85"/></g>
    <g transform="translate(311 236) rotate(0) scale(1)"><rect x="-9" y="-9" width="18" height="18" rx="4.5" fill="#F4EDE7" opacity="0.15"/></g>
    <text x="300" y="270" text-anchor="middle" font-family="ui-sans-serif, system-ui, sans-serif" font-size="10" letter-spacing="0.08em" fill="#B7A8A8">lost</text>
  </g>
  <g>
    <g transform="translate(418 166.5) rotate(-8) scale(1)"><rect x="-13" y="-11" width="26" height="22" rx="6.5" fill="#F4EDE7" opacity="0.97"/><g transform="translate(-7.2 -2) scale(1 1.15)"><rect x="-2" y="-3.5" width="4" height="7" rx="2" fill="#161013"/></g><g transform="translate(4 -2) scale(1 1.15)"><rect x="-2" y="-3.5" width="4" height="7" rx="2" fill="#161013"/></g></g>
    <g transform="translate(396.5 190.5) rotate(-4) scale(1)"><rect x="-9" y="-9" width="18" height="18" rx="4.5" fill="#F4EDE7" opacity="0.9"/></g>
    <g transform="translate(419.5 191) rotate(0) scale(1)"><rect x="-12" y="-12" width="24" height="24" rx="6" fill="#E4B65A" opacity="0.16"/><rect x="-9" y="-9" width="18" height="18" rx="4.5" fill="#E4B65A" opacity="1"/></g>
    <g transform="translate(441 191) rotate(-3) scale(1)"><rect x="-9" y="-9" width="18" height="18" rx="4.5" fill="#F4EDE7" opacity="0.9"/></g>
    <g transform="translate(397 213) rotate(0) scale(1)"><rect x="-9" y="-9" width="18" height="18" rx="4.5" fill="#E2A3A8" opacity="0.88"/></g>
    <g transform="translate(420 213) rotate(0) scale(1)"><rect x="-9" y="-9" width="18" height="18" rx="4.5" fill="#F4EDE7" opacity="0.92"/></g>
    <g transform="translate(441.5 213) rotate(-1) scale(1)"><rect x="-9" y="-9" width="18" height="18" rx="4.5" fill="#C8836C" opacity="0.88"/></g>
    <g transform="translate(409 235) rotate(0) scale(1)"><rect x="-9" y="-9" width="18" height="18" rx="4.5" fill="#F4EDE7" opacity="0.85"/></g>
    <g transform="translate(431.5 235) rotate(0) scale(1)"><rect x="-9" y="-9" width="18" height="18" rx="4.5" fill="#F4EDE7" opacity="0.85"/></g>
    <text x="420" y="270" text-anchor="middle" font-family="ui-sans-serif, system-ui, sans-serif" font-size="10" letter-spacing="0.08em" fill="#B7A8A8">searching</text>
  </g>
  <g>
    <g transform="translate(540 169) rotate(-2) scale(1)"><rect x="-13" y="-11" width="26" height="22" rx="6.5" fill="#F4EDE7" opacity="0.97"/><g transform="translate(-4.4 -0.6) scale(1 0.9)"><rect x="-2" y="-3.5" width="4" height="7" rx="2" fill="#161013"/></g><g transform="translate(6.8 -0.6) scale(1 0.9)"><rect x="-2" y="-3.5" width="4" height="7" rx="2" fill="#161013"/></g></g>
    <g transform="translate(519 192.5) rotate(0) scale(1)"><rect x="-9" y="-9" width="18" height="18" rx="4.5" fill="#F4EDE7" opacity="0.9"/></g>
    <g transform="translate(540 192) rotate(0) scale(0.97)"><rect x="-12" y="-12" width="24" height="24" rx="6" fill="#E4B65A" opacity="0.16"/><rect x="-9" y="-9" width="18" height="18" rx="4.5" fill="#E4B65A" opacity="1"/></g>
    <g transform="translate(561 192.5) rotate(0) scale(1)"><rect x="-9" y="-9" width="18" height="18" rx="4.5" fill="#F4EDE7" opacity="0.9"/></g>
    <g transform="translate(520 214) rotate(0) scale(1)"><rect x="-9" y="-9" width="18" height="18" rx="4.5" fill="#E2A3A8" opacity="0.88"/></g>
    <g transform="translate(540 214) rotate(0) scale(1)"><rect x="-9" y="-9" width="18" height="18" rx="4.5" fill="#F4EDE7" opacity="0.92"/></g>
    <g transform="translate(560 214) rotate(0) scale(1)"><rect x="-9" y="-9" width="18" height="18" rx="4.5" fill="#C8836C" opacity="0.88"/></g>
    <g transform="translate(530.5 234) rotate(0) scale(1)"><rect x="-9" y="-9" width="18" height="18" rx="4.5" fill="#F4EDE7" opacity="0.85"/></g>
    <g transform="translate(549.5 234) rotate(0) scale(1)"><rect x="-9" y="-9" width="18" height="18" rx="4.5" fill="#F4EDE7" opacity="0.85"/></g>
    <text x="540" y="270" text-anchor="middle" font-family="ui-sans-serif, system-ui, sans-serif" font-size="10" letter-spacing="0.08em" fill="#B7A8A8">watching</text>
  </g>
</svg>
