<svg xmlns="http://www.w3.org/2000/svg" viewBox="0 0 104 104" width="104" height="104" role="img" aria-label="Tess, the Tessera mascot, at rest">
  <!-- GENERATED from @tessera/mascot mood data by scripts/render-masters.mjs (ADR-0046). Do not hand-edit: regenerate via the package script `render-masters`. -->
  <rect width="104" height="104" fill="#161013"/>
  <g>
    <g transform="translate(52 19) rotate(1.5) scale(1)"><rect x="-13" y="-11" width="26" height="22" rx="6.5" fill="#F4EDE7" opacity="0.97"/><g transform="translate(-5.6 -0.8) scale(1 1)"><rect x="-2" y="-3.5" width="4" height="7" rx="2" fill="#161013"/></g><g transform="translate(5.6 -0.8) scale(1 1)"><rect x="-2" y="-3.5" width="4" height="7" rx="2" fill="#161013"/></g></g>
    <g transform="translate(30 43) rotate(0) scale(1)"><rect x="-9" y="-9" width="18" height="18" rx="4.5" fill="#F4EDE7" opacity="0.9"/></g>
    <g transform="translate(52 43) rotate(0) scale(1)"><rect x="-12" y="-12" width="24" height="24" rx="6" fill="#E4B65A" opacity="0.16"/><rect x="-9" y="-9" width="18" height="18" rx="4.5" fill="#E4B65A" opacity="1"/></g>
    <g transform="translate(74 43) rotate(0) scale(1)"><rect x="-9" y="-9" width="18" height="18" rx="4.5" fill="#F4EDE7" opacity="0.9"/></g>
    <g transform="translate(30 65) rotate(0) scale(1)"><rect x="-9" y="-9" width="18" height="18" rx="4.5" fill="#E2A3A8" opacity="0.88"/></g>
    <g transform="translate(52 65) rotate(0) scale(1)"><rect x="-9" y="-9" width="18" height="18" rx="4.5" fill="#F4EDE7" opacity="0.92"/></g>
    <g transform="translate(74 65) rotate(0) scale(1)"><rect x="-9" y="-9" width="18" height="18" rx="4.5" fill="#C8836C" opacity="0.88"/></g>
    <g transform="translate(40 87) rotate(0) scale(1)"><rect x="-9" y="-9" width="18" height="18" rx="4.5" fill="#F4EDE7" opacity="0.85"/></g>
    <g transform="translate(64 87) rotate(0) scale(1)"><rect x="-9" y="-9" width="18" height="18" rx="4.5" fill="#F4EDE7" opacity="0.85"/></g>
  </g>
</svg>
