<svg xmlns="http://www.w3.org/2000/svg" viewBox="0 0 600 276" width="600" height="276" role="img" aria-label="Tess mood sheet — every predefined mood">
  <!-- GENERATED from @tessera/mascot mood data by scripts/render-masters.mjs (ADR-0046). Do not hand-edit: regenerate via the package script `render-masters`. -->
  <rect width="600" height="276" fill="#161013"/>
  <g>
    <rect x="-9" y="-9" width="18" height="18" rx="4.5" fill="#F4EDE7" opacity="0.95" transform="translate(60 25) rotate(1.5) scale(1)"/>
    <rect x="-9" y="-9" width="18" height="18" rx="4.5" fill="#F4EDE7" opacity="0.9" transform="translate(38 47) rotate(0) scale(1)"/>
    <rect x="-12" y="-12" width="24" height="24" rx="6" fill="#E4B65A" opacity="0.16" transform="translate(60 47) rotate(0) scale(1)"/>
    <rect x="-9" y="-9" width="18" height="18" rx="4.5" fill="#E4B65A" opacity="1" transform="translate(60 47) rotate(0) scale(1)"/>
    <rect x="-9" y="-9" width="18" height="18" rx="4.5" fill="#F4EDE7" opacity="0.9" transform="translate(82 47) rotate(0) scale(1)"/>
    <rect x="-9" y="-9" width="18" height="18" rx="4.5" fill="#E2A3A8" opacity="0.88" transform="translate(38 69) rotate(0) scale(1)"/>
    <rect x="-9" y="-9" width="18" height="18" rx="4.5" fill="#F4EDE7" opacity="0.92" transform="translate(60 69) rotate(0) scale(1)"/>
    <rect x="-9" y="-9" width="18" height="18" rx="4.5" fill="#C8836C" opacity="0.88" transform="translate(82 69) rotate(0) scale(1)"/>
    <rect x="-9" y="-9" width="18" height="18" rx="4.5" fill="#F4EDE7" opacity="0.85" transform="translate(48 91) rotate(0) scale(1)"/>
    <rect x="-9" y="-9" width="18" height="18" rx="4.5" fill="#F4EDE7" opacity="0.85" transform="translate(72 91) rotate(0) scale(1)"/>
    <text x="60" y="124" text-anchor="middle" font-family="ui-sans-serif, system-ui, sans-serif" font-size="10" letter-spacing="0.08em" fill="#B7A8A8">idle</text>
  </g>
  <g>
    <rect x="-9" y="-9" width="18" height="18" rx="4.5" fill="#F4EDE7" opacity="0.95" transform="translate(182.5 23) rotate(9) scale(1)"/>
    <rect x="-9" y="-9" width="18" height="18" rx="4.5" fill="#F4EDE7" opacity="0.9" transform="translate(158 47) rotate(-2) scale(1)"/>
    <rect x="-12" y="-12" width="24" height="24" rx="6" fill="#E4B65A" opacity="0.16" transform="translate(180.5 46.5) rotate(0) scale(1)"/>
    <rect x="-9" y="-9" width="18" height="18" rx="4.5" fill="#E4B65A" opacity="1" transform="translate(180.5 46.5) rotate(0) scale(1)"/>
    <rect x="-9" y="-9" width="18" height="18" rx="4.5" fill="#F4EDE7" opacity="0.9" transform="translate(203 46) rotate(3) scale(1)"/>
    <rect x="-9" y="-9" width="18" height="18" rx="4.5" fill="#E2A3A8" opacity="0.88" transform="translate(158 69) rotate(-1) scale(1)"/>
    <rect x="-9" y="-9" width="18" height="18" rx="4.5" fill="#F4EDE7" opacity="0.92" transform="translate(180.5 69) rotate(0) scale(1)"/>
    <rect x="-9" y="-9" width="18" height="18" rx="4.5" fill="#C8836C" opacity="0.88" transform="translate(202.5 69) rotate(0) scale(1)"/>
    <rect x="-9" y="-9" width="18" height="18" rx="4.5" fill="#F4EDE7" opacity="0.85" transform="translate(169 91) rotate(0) scale(1)"/>
    <rect x="-9" y="-9" width="18" height="18" rx="4.5" fill="#F4EDE7" opacity="0.85" transform="translate(192 90.5) rotate(2) scale(1)"/>
    <text x="180" y="124" text-anchor="middle" font-family="ui-sans-serif, system-ui, sans-serif" font-size="10" letter-spacing="0.08em" fill="#B7A8A8">curious</text>
  </g>
  <g>
    <rect x="-9" y="-9" width="18" height="18" rx="4.5" fill="#F4EDE7" opacity="0.95" transform="translate(300 26.5) rotate(-1) scale(1)"/>
    <rect x="-9" y="-9" width="18" height="18" rx="4.5" fill="#F4EDE7" opacity="0.9" transform="translate(279.5 47.5) rotate(0) scale(1)"/>
    <rect x="-12" y="-12" width="24" height="24" rx="6" fill="#E4B65A" opacity="0.16" transform="translate(300 47) rotate(0) scale(0.96)"/>
    <rect x="-9" y="-9" width="18" height="18" rx="4.5" fill="#E4B65A" opacity="1" transform="translate(300 47) rotate(0) scale(0.96)"/>
    <rect x="-9" y="-9" width="18" height="18" rx="4.5" fill="#F4EDE7" opacity="0.9" transform="translate(320.5 47.5) rotate(0) scale(1)"/>
    <rect x="-9" y="-9" width="18" height="18" rx="4.5" fill="#E2A3A8" opacity="0.88" transform="translate(280 69) rotate(0) scale(1)"/>
    <rect x="-9" y="-9" width="18" height="18" rx="4.5" fill="#F4EDE7" opacity="0.92" transform="translate(300 69.5) rotate(0) scale(1)"/>
    <rect x="-9" y="-9" width="18" height="18" rx="4.5" fill="#C8836C" opacity="0.88" transform="translate(320 69) rotate(0) scale(1)"/>
    <rect x="-9" y="-9" width="18" height="18" rx="4.5" fill="#F4EDE7" opacity="0.85" transform="translate(290 91) rotate(0) scale(1)"/>
    <rect x="-9" y="-9" width="18" height="18" rx="4.5" fill="#F4EDE7" opacity="0.85" transform="translate(310 91) rotate(0) scale(1)"/>
    <text x="300" y="124" text-anchor="middle" font-family="ui-sans-serif, system-ui, sans-serif" font-size="10" letter-spacing="0.08em" fill="#B7A8A8">working</text>
  </g>
  <g>
    <rect x="-9" y="-9" width="18" height="18" rx="4.5" fill="#F4EDE7" opacity="0.98" transform="translate(420 25) rotate(0) scale(1)"/>
    <rect x="-9" y="-9" width="18" height="18" rx="4.5" fill="#F4EDE7" opacity="0.95" transform="translate(398 47) rotate(0) scale(1)"/>
    <rect x="-12" y="-12" width="24" height="24" rx="6" fill="#E4B65A" opacity="0.16" transform="translate(420 47) rotate(0) scale(1)"/>
    <rect x="-9" y="-9" width="18" height="18" rx="4.5" fill="#E4B65A" opacity="1" transform="translate(420 47) rotate(0) scale(1)"/>
    <rect x="-9" y="-9" width="18" height="18" rx="4.5" fill="#F4EDE7" opacity="0.95" transform="translate(442 47) rotate(0) scale(1)"/>
    <rect x="-9" y="-9" width="18" height="18" rx="4.5" fill="#E2A3A8" opacity="0.94" transform="translate(398 69) rotate(0) scale(1)"/>
    <rect x="-9" y="-9" width="18" height="18" rx="4.5" fill="#F4EDE7" opacity="0.97" transform="translate(420 69) rotate(0) scale(1)"/>
    <rect x="-9" y="-9" width="18" height="18" rx="4.5" fill="#C8836C" opacity="0.94" transform="translate(442 69) rotate(0) scale(1)"/>
    <rect x="-9" y="-9" width="18" height="18" rx="4.5" fill="#F4EDE7" opacity="0.92" transform="translate(409 91) rotate(0) scale(1)"/>
    <rect x="-9" y="-9" width="18" height="18" rx="4.5" fill="#F4EDE7" opacity="0.92" transform="translate(431 91) rotate(0) scale(1)"/>
    <text x="420" y="124" text-anchor="middle" font-family="ui-sans-serif, system-ui, sans-serif" font-size="10" letter-spacing="0.08em" fill="#B7A8A8">satisfied</text>
  </g>
  <g>
    <rect x="-9" y="-9" width="18" height="18" rx="4.5" fill="#F4EDE7" opacity="0.95" transform="translate(539 25) rotate(-7) scale(1)"/>
    <rect x="-9" y="-9" width="18" height="18" rx="4.5" fill="#F4EDE7" opacity="0.9" transform="translate(516 47) rotate(-2) scale(1)"/>
    <rect x="-12" y="-12" width="24" height="24" rx="6" fill="#E4B65A" opacity="0.16" transform="translate(540 47) rotate(0) scale(1.04)"/>
    <rect x="-9" y="-9" width="18" height="18" rx="4.5" fill="#E4B65A" opacity="1" transform="translate(540 47) rotate(0) scale(1.04)"/>
    <rect x="-9" y="-9" width="18" height="18" rx="4.5" fill="#F4EDE7" opacity="0.9" transform="translate(560.5 47) rotate(-3) scale(1)"/>
    <rect x="-9" y="-9" width="18" height="18" rx="4.5" fill="#E2A3A8" opacity="0.88" transform="translate(515.5 69) rotate(0) scale(1)"/>
    <rect x="-9" y="-9" width="18" height="18" rx="4.5" fill="#F4EDE7" opacity="0.92" transform="translate(539 69) rotate(0) scale(1)"/>
    <rect x="-9" y="-9" width="18" height="18" rx="4.5" fill="#C8836C" opacity="0.95" transform="translate(569 64) rotate(16) scale(1)"/>
    <rect x="-9" y="-9" width="18" height="18" rx="4.5" fill="#F4EDE7" opacity="0.85" transform="translate(526 91) rotate(0) scale(1)"/>
    <rect x="-9" y="-9" width="18" height="18" rx="4.5" fill="#F4EDE7" opacity="0.85" transform="translate(554 91) rotate(-2) scale(1)"/>
    <text x="540" y="124" text-anchor="middle" font-family="ui-sans-serif, system-ui, sans-serif" font-size="10" letter-spacing="0.08em" fill="#B7A8A8">alarmed</text>
  </g>
  <g>
    <rect x="-9" y="-9" width="18" height="18" rx="4.5" fill="#F4EDE7" opacity="0.95" transform="translate(60 161.5) rotate(3) scale(1)"/>
    <rect x="-9" y="-9" width="18" height="18" rx="4.5" fill="#E2A3A8" opacity="0.9" transform="translate(35 184) rotate(-6) scale(1)"/>
    <rect x="-12" y="-12" width="24" height="24" rx="6" fill="#E4B65A" opacity="0.16" transform="translate(60 178) rotate(0) scale(1.1)"/>
    <rect x="-9" y="-9" width="18" height="18" rx="4.5" fill="#E4B65A" opacity="1" transform="translate(60 178) rotate(0) scale(1.1)"/>
    <rect x="-9" y="-9" width="18" height="18" rx="4.5" fill="#E2A3A8" opacity="0.9" transform="translate(85 184) rotate(6) scale(1)"/>
    <rect x="-9" y="-9" width="18" height="18" rx="4.5" fill="#E2A3A8" opacity="0.88" transform="translate(36.5 207) rotate(0) scale(1)"/>
    <rect x="-9" y="-9" width="18" height="18" rx="4.5" fill="#F4EDE7" opacity="0.92" transform="translate(60 207.5) rotate(0) scale(1)"/>
    <rect x="-9" y="-9" width="18" height="18" rx="4.5" fill="#C8836C" opacity="0.88" transform="translate(83.5 207) rotate(0) scale(1)"/>
    <rect x="-9" y="-9" width="18" height="18" rx="4.5" fill="#F4EDE7" opacity="0.85" transform="translate(50 229) rotate(0) scale(1)"/>
    <rect x="-9" y="-9" width="18" height="18" rx="4.5" fill="#F4EDE7" opacity="0.85" transform="translate(70 229) rotate(0) scale(1)"/>
    <text x="60" y="262" text-anchor="middle" font-family="ui-sans-serif, system-ui, sans-serif" font-size="10" letter-spacing="0.08em" fill="#B7A8A8">celebrating</text>
  </g>
  <g>
    <rect x="-9" y="-9" width="18" height="18" rx="4.5" fill="#F4EDE7" opacity="0.95" transform="translate(180 164) rotate(12) scale(1)"/>
    <rect x="-9" y="-9" width="18" height="18" rx="4.5" fill="#F4EDE7" opacity="0.9" transform="translate(158 185.5) rotate(0) scale(1)"/>
    <rect x="-12" y="-12" width="24" height="24" rx="6" fill="#E4B65A" opacity="0.16" transform="translate(180 185.5) rotate(0) scale(1)"/>
    <rect x="-9" y="-9" width="18" height="18" rx="4.5" fill="#E4B65A" opacity="1" transform="translate(180 185.5) rotate(0) scale(1)"/>
    <rect x="-9" y="-9" width="18" height="18" rx="4.5" fill="#F4EDE7" opacity="0.9" transform="translate(202 181.5) rotate(8) scale(1)"/>
    <rect x="-9" y="-9" width="18" height="18" rx="4.5" fill="#E2A3A8" opacity="0.88" transform="translate(158 207) rotate(0) scale(1)"/>
    <rect x="-9" y="-9" width="18" height="18" rx="4.5" fill="#F4EDE7" opacity="0.92" transform="translate(180 207) rotate(0) scale(1)"/>
    <rect x="-9" y="-9" width="18" height="18" rx="4.5" fill="#C8836C" opacity="0.88" transform="translate(202 207) rotate(0) scale(1)"/>
    <rect x="-9" y="-9" width="18" height="18" rx="4.5" fill="#F4EDE7" opacity="0.85" transform="translate(168.5 229) rotate(0) scale(1)"/>
    <rect x="-9" y="-9" width="18" height="18" rx="4.5" fill="#F4EDE7" opacity="0.85" transform="translate(191.5 229) rotate(0) scale(1)"/>
    <text x="180" y="262" text-anchor="middle" font-family="ui-sans-serif, system-ui, sans-serif" font-size="10" letter-spacing="0.08em" fill="#B7A8A8">greeting</text>
  </g>
  <g>
    <rect x="-9" y="-9" width="18" height="18" rx="4.5" fill="#F4EDE7" opacity="0.95" transform="translate(298 163) rotate(-11) scale(1)"/>
    <rect x="-9" y="-9" width="18" height="18" rx="4.5" fill="#F4EDE7" opacity="0.9" transform="translate(277 185) rotate(-3) scale(1)"/>
    <rect x="-12" y="-12" width="24" height="24" rx="6" fill="#E4B65A" opacity="0.16" transform="translate(299.5 185) rotate(0) scale(1.02)"/>
    <rect x="-9" y="-9" width="18" height="18" rx="4.5" fill="#E4B65A" opacity="1" transform="translate(299.5 185) rotate(0) scale(1.02)"/>
    <rect x="-9" y="-9" width="18" height="18" rx="4.5" fill="#F4EDE7" opacity="0.9" transform="translate(321.5 185) rotate(-2) scale(1)"/>
    <rect x="-9" y="-9" width="18" height="18" rx="4.5" fill="#E2A3A8" opacity="0.88" transform="translate(276.5 207) rotate(-2) scale(1)"/>
    <rect x="-9" y="-9" width="18" height="18" rx="4.5" fill="#F4EDE7" opacity="0.92" transform="translate(299 207) rotate(0) scale(1)"/>
    <rect x="-9" y="-9" width="18" height="18" rx="4.5" fill="#C8836C" opacity="0.88" transform="translate(321 207) rotate(2) scale(1)"/>
    <rect x="-9" y="-9" width="18" height="18" rx="4.5" fill="#F4EDE7" opacity="0.85" transform="translate(287 229) rotate(0) scale(1)"/>
    <rect x="-9" y="-9" width="18" height="18" rx="4.5" fill="#F4EDE7" opacity="0.15" transform="translate(311 230) rotate(0) scale(1)"/>
    <text x="300" y="262" text-anchor="middle" font-family="ui-sans-serif, system-ui, sans-serif" font-size="10" letter-spacing="0.08em" fill="#B7A8A8">lost</text>
  </g>
  <g>
    <rect x="-9" y="-9" width="18" height="18" rx="4.5" fill="#F4EDE7" opacity="0.95" transform="translate(417.5 161.5) rotate(-13) scale(1)"/>
    <rect x="-9" y="-9" width="18" height="18" rx="4.5" fill="#F4EDE7" opacity="0.9" transform="translate(396.5 184.5) rotate(-4) scale(1)"/>
    <rect x="-12" y="-12" width="24" height="24" rx="6" fill="#E4B65A" opacity="0.16" transform="translate(419.5 185) rotate(0) scale(1)"/>
    <rect x="-9" y="-9" width="18" height="18" rx="4.5" fill="#E4B65A" opacity="1" transform="translate(419.5 185) rotate(0) scale(1)"/>
    <rect x="-9" y="-9" width="18" height="18" rx="4.5" fill="#F4EDE7" opacity="0.9" transform="translate(441 185) rotate(-3) scale(1)"/>
    <rect x="-9" y="-9" width="18" height="18" rx="4.5" fill="#E2A3A8" opacity="0.88" transform="translate(397 207) rotate(0) scale(1)"/>
    <rect x="-9" y="-9" width="18" height="18" rx="4.5" fill="#F4EDE7" opacity="0.92" transform="translate(420 207) rotate(0) scale(1)"/>
    <rect x="-9" y="-9" width="18" height="18" rx="4.5" fill="#C8836C" opacity="0.88" transform="translate(441.5 207) rotate(-1) scale(1)"/>
    <rect x="-9" y="-9" width="18" height="18" rx="4.5" fill="#F4EDE7" opacity="0.85" transform="translate(409 229) rotate(0) scale(1)"/>
    <rect x="-9" y="-9" width="18" height="18" rx="4.5" fill="#F4EDE7" opacity="0.85" transform="translate(431.5 229) rotate(0) scale(1)"/>
    <text x="420" y="262" text-anchor="middle" font-family="ui-sans-serif, system-ui, sans-serif" font-size="10" letter-spacing="0.08em" fill="#B7A8A8">searching</text>
  </g>
  <g>
    <rect x="-9" y="-9" width="18" height="18" rx="4.5" fill="#F4EDE7" opacity="0.95" transform="translate(540 165) rotate(-2) scale(1)"/>
    <rect x="-9" y="-9" width="18" height="18" rx="4.5" fill="#F4EDE7" opacity="0.9" transform="translate(519 186.5) rotate(0) scale(1)"/>
    <rect x="-12" y="-12" width="24" height="24" rx="6" fill="#E4B65A" opacity="0.16" transform="translate(540 186) rotate(0) scale(0.97)"/>
    <rect x="-9" y="-9" width="18" height="18" rx="4.5" fill="#E4B65A" opacity="1" transform="translate(540 186) rotate(0) scale(0.97)"/>
    <rect x="-9" y="-9" width="18" height="18" rx="4.5" fill="#F4EDE7" opacity="0.9" transform="translate(561 186.5) rotate(0) scale(1)"/>
    <rect x="-9" y="-9" width="18" height="18" rx="4.5" fill="#E2A3A8" opacity="0.88" transform="translate(520 208) rotate(0) scale(1)"/>
    <rect x="-9" y="-9" width="18" height="18" rx="4.5" fill="#F4EDE7" opacity="0.92" transform="translate(540 208) rotate(0) scale(1)"/>
    <rect x="-9" y="-9" width="18" height="18" rx="4.5" fill="#C8836C" opacity="0.88" transform="translate(560 208) rotate(0) scale(1)"/>
    <rect x="-9" y="-9" width="18" height="18" rx="4.5" fill="#F4EDE7" opacity="0.85" transform="translate(530.5 228) rotate(0) scale(1)"/>
    <rect x="-9" y="-9" width="18" height="18" rx="4.5" fill="#F4EDE7" opacity="0.85" transform="translate(549.5 228) rotate(0) scale(1)"/>
    <text x="540" y="262" text-anchor="middle" font-family="ui-sans-serif, system-ui, sans-serif" font-size="10" letter-spacing="0.08em" fill="#B7A8A8">watching</text>
  </g>
</svg>
