<svg xmlns="http://www.w3.org/2000/svg" viewBox="0 0 600 276" width="600" height="276" role="img" aria-label="Tess mood sheet — every predefined mood">
  <!-- GENERATED from @tessera/mascot mood data by scripts/render-masters.mjs (ADR-0046). Do not hand-edit: regenerate via the package script `render-masters`. -->
  <rect width="600" height="276" fill="#161013"/>
  <g>
    <g transform="translate(60 44) rotate(1.5) scale(1)"><rect x="-19" y="-16" width="38" height="32" rx="10" fill="#F4EDE7" opacity="0.97"/><rect x="-14.25" y="3.5" width="5.5" height="3" rx="1.5" fill="#E2A3A8" opacity="0.45"/><rect x="8.75" y="3.5" width="5.5" height="3" rx="1.5" fill="#E2A3A8" opacity="0.45"/><g transform="translate(-6.5 -1.5) scale(1 1)"><rect x="-2.25" y="-4" width="4.5" height="8" rx="2.2" fill="#161013"/></g><g transform="translate(6.5 -1.5) scale(1 1)"><rect x="-2.25" y="-4" width="4.5" height="8" rx="2.2" fill="#161013"/></g></g>
    <g transform="translate(60 73.5) rotate(0) scale(1)"><rect x="-14" y="-12.5" width="28" height="25" rx="7.5" fill="#E4B65A" opacity="0.16"/><rect x="-11" y="-9.5" width="22" height="19" rx="6" fill="#E4B65A" opacity="1"/></g>
    <g transform="translate(39 72) rotate(0) scale(1)"><rect x="-6" y="-6" width="12" height="12" rx="4.5" fill="#F4EDE7" opacity="0.92"/></g>
    <g transform="translate(81 72) rotate(0) scale(1)"><rect x="-6" y="-6" width="12" height="12" rx="4.5" fill="#F4EDE7" opacity="0.92"/></g>
    <g transform="translate(51 92) rotate(0) scale(1)"><rect x="-6" y="-5" width="12" height="10" rx="4" fill="#F4EDE7" opacity="0.85"/></g>
    <g transform="translate(69 92) rotate(0) scale(1)"><rect x="-6" y="-5" width="12" height="10" rx="4" fill="#F4EDE7" opacity="0.85"/></g>
    
    <text x="60" y="132" text-anchor="middle" font-family="ui-sans-serif, system-ui, sans-serif" font-size="10" letter-spacing="0.08em" fill="#B7A8A8">idle</text>
  </g>
  <g>
    <g transform="translate(182 43) rotate(6) scale(1)"><rect x="-19" y="-16" width="38" height="32" rx="10" fill="#F4EDE7" opacity="0.97"/><rect x="-14.25" y="3.5" width="5.5" height="3" rx="1.5" fill="#E2A3A8" opacity="0.45"/><rect x="8.75" y="3.5" width="5.5" height="3" rx="1.5" fill="#E2A3A8" opacity="0.45"/><g transform="translate(-4.9 -2.3) scale(1 1.15)"><rect x="-2.25" y="-4" width="4.5" height="8" rx="2.2" fill="#161013"/></g><g transform="translate(8.1 -2.3) scale(1 1.15)"><rect x="-2.25" y="-4" width="4.5" height="8" rx="2.2" fill="#161013"/></g></g>
    <g transform="translate(180.5 73.5) rotate(0) scale(1)"><rect x="-14" y="-12.5" width="28" height="25" rx="7.5" fill="#E4B65A" opacity="0.16"/><rect x="-11" y="-9.5" width="22" height="19" rx="6" fill="#E4B65A" opacity="1"/></g>
    <g transform="translate(158 73) rotate(0) scale(1)"><rect x="-6" y="-6" width="12" height="12" rx="4.5" fill="#F4EDE7" opacity="0.92"/></g>
    <g transform="translate(196.5 61.5) rotate(-10) scale(1)"><rect x="-6" y="-6" width="12" height="12" rx="4.5" fill="#F4EDE7" opacity="0.92"/></g>
    <g transform="translate(172 92) rotate(0) scale(1)"><rect x="-6" y="-5" width="12" height="10" rx="4" fill="#F4EDE7" opacity="0.85"/></g>
    <g transform="translate(189 92) rotate(2) scale(1)"><rect x="-6" y="-5" width="12" height="10" rx="4" fill="#F4EDE7" opacity="0.85"/></g>
    
    <text x="180" y="132" text-anchor="middle" font-family="ui-sans-serif, system-ui, sans-serif" font-size="10" letter-spacing="0.08em" fill="#B7A8A8">curious</text>
  </g>
  <g>
    <g transform="translate(300 45.5) rotate(-1) scale(1)"><rect x="-19" y="-16" width="38" height="32" rx="10" fill="#F4EDE7" opacity="0.97"/><rect x="-14.25" y="3.5" width="5.5" height="3" rx="1.5" fill="#E2A3A8" opacity="0.45"/><rect x="8.75" y="3.5" width="5.5" height="3" rx="1.5" fill="#E2A3A8" opacity="0.45"/><g transform="translate(-6.2 -0.3) scale(1 0.8)"><rect x="-2.25" y="-4" width="4.5" height="8" rx="2.2" fill="#161013"/></g><g transform="translate(6.8 -0.3) scale(1 0.8)"><rect x="-2.25" y="-4" width="4.5" height="8" rx="2.2" fill="#161013"/></g></g>
    <g transform="translate(300 74) rotate(0) scale(1)"><rect x="-14" y="-12.5" width="28" height="25" rx="7.5" fill="#E4B65A" opacity="0.16"/><rect x="-11" y="-9.5" width="22" height="19" rx="6" fill="#E4B65A" opacity="1"/></g>
    <g transform="translate(292 82) rotate(8) scale(1)"><rect x="-6" y="-6" width="12" height="12" rx="4.5" fill="#F4EDE7" opacity="0.92"/></g>
    <g transform="translate(308 82) rotate(-8) scale(1)"><rect x="-6" y="-6" width="12" height="12" rx="4.5" fill="#F4EDE7" opacity="0.92"/></g>
    <g transform="translate(293 92) rotate(0) scale(1)"><rect x="-6" y="-5" width="12" height="10" rx="4" fill="#F4EDE7" opacity="0.85"/></g>
    <g transform="translate(307 92) rotate(0) scale(1)"><rect x="-6" y="-5" width="12" height="10" rx="4" fill="#F4EDE7" opacity="0.85"/></g>
    <rect x="290" y="70" width="20" height="13" rx="2.5" fill="#C8836C" opacity="0.9"/><line x1="293" y1="73.5" x2="306" y2="73.5" stroke="#F4EDE7" stroke-width="1.4" stroke-linecap="round" opacity="0.85"/><line x1="293" y1="76.5" x2="302" y2="76.5" stroke="#F4EDE7" stroke-width="1.4" stroke-linecap="round" opacity="0.25"/><line x1="293" y1="79.5" x2="304" y2="79.5" stroke="#F4EDE7" stroke-width="1.4" stroke-linecap="round" opacity="0.25"/><rect x="288" y="84.5" width="24" height="4" rx="2" fill="#C8836C"/>
    <text x="300" y="132" text-anchor="middle" font-family="ui-sans-serif, system-ui, sans-serif" font-size="10" letter-spacing="0.08em" fill="#B7A8A8">working</text>
  </g>
  <g>
    <g transform="translate(420 44) rotate(0) scale(1)"><rect x="-19" y="-16" width="38" height="32" rx="10" fill="#F4EDE7" opacity="0.97"/><rect x="-14.25" y="3.5" width="5.5" height="3" rx="1.5" fill="#E2A3A8" opacity="0.45"/><rect x="8.75" y="3.5" width="5.5" height="3" rx="1.5" fill="#E2A3A8" opacity="0.45"/><g transform="translate(-6.5 -1.2) scale(1 0.55)"><rect x="-2.25" y="-4" width="4.5" height="8" rx="2.2" fill="#161013"/></g><g transform="translate(6.5 -1.2) scale(1 0.55)"><rect x="-2.25" y="-4" width="4.5" height="8" rx="2.2" fill="#161013"/></g></g>
    <g transform="translate(420 73.5) rotate(0) scale(1)"><rect x="-14" y="-12.5" width="28" height="25" rx="7.5" fill="#E4B65A" opacity="0.16"/><rect x="-11" y="-9.5" width="22" height="19" rx="6" fill="#E4B65A" opacity="1"/></g>
    <g transform="translate(405 80) rotate(-18) scale(1)"><rect x="-6" y="-6" width="12" height="12" rx="4.5" fill="#F4EDE7" opacity="0.92"/></g>
    <g transform="translate(435 80) rotate(18) scale(1)"><rect x="-6" y="-6" width="12" height="12" rx="4.5" fill="#F4EDE7" opacity="0.92"/></g>
    <g transform="translate(412 92) rotate(0) scale(1)"><rect x="-6" y="-5" width="12" height="10" rx="4" fill="#F4EDE7" opacity="0.85"/></g>
    <g transform="translate(428 92) rotate(0) scale(1)"><rect x="-6" y="-5" width="12" height="10" rx="4" fill="#F4EDE7" opacity="0.85"/></g>
    
    <text x="420" y="132" text-anchor="middle" font-family="ui-sans-serif, system-ui, sans-serif" font-size="10" letter-spacing="0.08em" fill="#B7A8A8">satisfied</text>
  </g>
  <g>
    <g transform="translate(539 44) rotate(-6) scale(1)"><rect x="-19" y="-16" width="38" height="32" rx="10" fill="#F4EDE7" opacity="0.97"/><rect x="-14.25" y="3.5" width="5.5" height="3" rx="1.5" fill="#E2A3A8" opacity="0.45"/><rect x="8.75" y="3.5" width="5.5" height="3" rx="1.5" fill="#E2A3A8" opacity="0.45"/><g transform="translate(-4.7 -1.1) scale(1 1.35)"><rect x="-2.25" y="-4" width="4.5" height="8" rx="2.2" fill="#161013"/></g><g transform="translate(8.3 -1.1) scale(1 1.35)"><rect x="-2.25" y="-4" width="4.5" height="8" rx="2.2" fill="#161013"/></g></g>
    <g transform="translate(539 73.5) rotate(0) scale(1.03)"><rect x="-14" y="-12.5" width="28" height="25" rx="7.5" fill="#E4B65A" opacity="0.16"/><rect x="-11" y="-9.5" width="22" height="19" rx="6" fill="#E4B65A" opacity="1"/></g>
    <g transform="translate(515 48) rotate(-14) scale(1)"><rect x="-6" y="-6" width="12" height="12" rx="4.5" fill="#F4EDE7" opacity="0.92"/></g>
    <g transform="translate(565 48) rotate(14) scale(1)"><rect x="-6" y="-6" width="12" height="12" rx="4.5" fill="#F4EDE7" opacity="0.92"/></g>
    <g transform="translate(529 92) rotate(0) scale(1)"><rect x="-6" y="-5" width="12" height="10" rx="4" fill="#F4EDE7" opacity="0.85"/></g>
    <g transform="translate(551 92) rotate(-2) scale(1)"><rect x="-6" y="-5" width="12" height="10" rx="4" fill="#F4EDE7" opacity="0.85"/></g>
    <rect x="568" y="56" width="11" height="11" rx="4" fill="#C8836C" transform="rotate(14 573.5 61.5)"/>
    <text x="540" y="132" text-anchor="middle" font-family="ui-sans-serif, system-ui, sans-serif" font-size="10" letter-spacing="0.08em" fill="#B7A8A8">alarmed</text>
  </g>
  <g>
    <g transform="translate(60 181) rotate(3) scale(1)"><rect x="-19" y="-16" width="38" height="32" rx="10" fill="#F4EDE7" opacity="0.97"/><rect x="-14.25" y="3.5" width="5.5" height="3" rx="1.5" fill="#E2A3A8" opacity="0.45"/><rect x="8.75" y="3.5" width="5.5" height="3" rx="1.5" fill="#E2A3A8" opacity="0.45"/><g transform="translate(-6.5 -2.5) scale(1 0.6)"><rect x="-2.25" y="-4" width="4.5" height="8" rx="2.2" fill="#161013"/></g><g transform="translate(6.5 -2.5) scale(1 0.6)"><rect x="-2.25" y="-4" width="4.5" height="8" rx="2.2" fill="#161013"/></g></g>
    <g transform="translate(60 210.5) rotate(0) scale(1.06)"><rect x="-14" y="-12.5" width="28" height="25" rx="7.5" fill="#E4B65A" opacity="0.16"/><rect x="-11" y="-9.5" width="22" height="19" rx="6" fill="#E4B65A" opacity="1"/></g>
    <g transform="translate(38 180) rotate(-12) scale(1)"><rect x="-6" y="-6" width="12" height="12" rx="4.5" fill="#F4EDE7" opacity="0.92"/></g>
    <g transform="translate(82 180) rotate(12) scale(1)"><rect x="-6" y="-6" width="12" height="12" rx="4.5" fill="#F4EDE7" opacity="0.92"/></g>
    <g transform="translate(53 230) rotate(0) scale(1)"><rect x="-6" y="-5" width="12" height="10" rx="4" fill="#F4EDE7" opacity="0.85"/></g>
    <g transform="translate(67 230) rotate(0) scale(1)"><rect x="-6" y="-5" width="12" height="10" rx="4" fill="#F4EDE7" opacity="0.85"/></g>
    <rect x="30" y="164" width="4" height="4" rx="1.2" fill="#E2A3A8" opacity="0.85"/><rect x="46.3" y="156.3" width="3.4" height="3.4" rx="1.02" fill="#C8836C" opacity="0.85"/><rect x="66" y="155" width="4" height="4" rx="1.2" fill="#F4EDE7" opacity="0.85"/><rect x="82.3" y="162.3" width="3.4" height="3.4" rx="1.02" fill="#E2A3A8" opacity="0.85"/><rect x="94.5" y="176.5" width="3" height="3" rx="0.9" fill="#C8836C" opacity="0.85"/>
    <text x="60" y="270" text-anchor="middle" font-family="ui-sans-serif, system-ui, sans-serif" font-size="10" letter-spacing="0.08em" fill="#B7A8A8">celebrating</text>
  </g>
  <g>
    <g transform="translate(180 182.5) rotate(8) scale(1)"><rect x="-19" y="-16" width="38" height="32" rx="10" fill="#F4EDE7" opacity="0.97"/><rect x="-14.25" y="3.5" width="5.5" height="3" rx="1.5" fill="#E2A3A8" opacity="0.45"/><rect x="8.75" y="3.5" width="5.5" height="3" rx="1.5" fill="#E2A3A8" opacity="0.45"/><g transform="translate(-6.5 -1.5) scale(1 1.1)"><rect x="-2.25" y="-4" width="4.5" height="8" rx="2.2" fill="#161013"/></g><g transform="translate(6.5 -1.5) scale(1 1.1)"><rect x="-2.25" y="-4" width="4.5" height="8" rx="2.2" fill="#161013"/></g></g>
    <g transform="translate(180 212) rotate(0) scale(1)"><rect x="-14" y="-12.5" width="28" height="25" rx="7.5" fill="#E4B65A" opacity="0.16"/><rect x="-11" y="-9.5" width="22" height="19" rx="6" fill="#E4B65A" opacity="1"/></g>
    <g transform="translate(159 210) rotate(0) scale(1)"><rect x="-6" y="-6" width="12" height="12" rx="4.5" fill="#F4EDE7" opacity="0.92"/></g>
    <g transform="translate(204 188) rotate(14) scale(1)"><rect x="-6" y="-6" width="12" height="12" rx="4.5" fill="#F4EDE7" opacity="0.92"/></g>
    <g transform="translate(171.5 230) rotate(0) scale(1)"><rect x="-6" y="-5" width="12" height="10" rx="4" fill="#F4EDE7" opacity="0.85"/></g>
    <g transform="translate(188.5 230) rotate(0) scale(1)"><rect x="-6" y="-5" width="12" height="10" rx="4" fill="#F4EDE7" opacity="0.85"/></g>
    
    <text x="180" y="270" text-anchor="middle" font-family="ui-sans-serif, system-ui, sans-serif" font-size="10" letter-spacing="0.08em" fill="#B7A8A8">greeting</text>
  </g>
  <g>
    <g transform="translate(298 182) rotate(-9) scale(1)"><rect x="-19" y="-16" width="38" height="32" rx="10" fill="#F4EDE7" opacity="0.97"/><rect x="-14.25" y="3.5" width="5.5" height="3" rx="1.5" fill="#E2A3A8" opacity="0.45"/><rect x="8.75" y="3.5" width="5.5" height="3" rx="1.5" fill="#E2A3A8" opacity="0.45"/><g transform="translate(-8.3 -0.9) scale(1 1.1)"><rect x="-2.25" y="-4" width="4.5" height="8" rx="2.2" fill="#161013"/></g><g transform="translate(4.7 -0.9) scale(1 1.1)"><rect x="-2.25" y="-4" width="4.5" height="8" rx="2.2" fill="#161013"/></g></g>
    <g transform="translate(299 211.5) rotate(0) scale(1)"><rect x="-14" y="-12.5" width="28" height="25" rx="7.5" fill="#E4B65A" opacity="0.16"/><rect x="-11" y="-9.5" width="22" height="19" rx="6" fill="#E4B65A" opacity="1"/></g>
    <g transform="translate(278 211) rotate(0) scale(1)"><rect x="-6" y="-6" width="12" height="12" rx="4.5" fill="#F4EDE7" opacity="0.92"/></g>
    <g transform="translate(318 178) rotate(-12) scale(1)"><rect x="-6" y="-6" width="12" height="12" rx="4.5" fill="#F4EDE7" opacity="0.92"/></g>
    <g transform="translate(290 230) rotate(0) scale(1)"><rect x="-6" y="-5" width="12" height="10" rx="4" fill="#F4EDE7" opacity="0.85"/></g>
    <g transform="translate(308 231) rotate(0) scale(1)"><rect x="-6" y="-5" width="12" height="10" rx="4" fill="#F4EDE7" opacity="0.15"/></g>
    
    <text x="300" y="270" text-anchor="middle" font-family="ui-sans-serif, system-ui, sans-serif" font-size="10" letter-spacing="0.08em" fill="#B7A8A8">lost</text>
  </g>
  <g>
    <g transform="translate(418 181.5) rotate(-8) scale(1)"><rect x="-19" y="-16" width="38" height="32" rx="10" fill="#F4EDE7" opacity="0.97"/><rect x="-14.25" y="3.5" width="5.5" height="3" rx="1.5" fill="#E2A3A8" opacity="0.45"/><rect x="8.75" y="3.5" width="5.5" height="3" rx="1.5" fill="#E2A3A8" opacity="0.45"/><g transform="translate(-8.1 -2.7) scale(1 1.15)"><rect x="-2.25" y="-4" width="4.5" height="8" rx="2.2" fill="#161013"/></g><g transform="translate(4.9 -2.7) scale(1 1.15)"><rect x="-2.25" y="-4" width="4.5" height="8" rx="2.2" fill="#161013"/></g></g>
    <g transform="translate(419.5 211.5) rotate(0) scale(1)"><rect x="-14" y="-12.5" width="28" height="25" rx="7.5" fill="#E4B65A" opacity="0.16"/><rect x="-11" y="-9.5" width="22" height="19" rx="6" fill="#E4B65A" opacity="1"/></g>
    <g transform="translate(396 200) rotate(-8) scale(1)"><rect x="-6" y="-6" width="12" height="12" rx="4.5" fill="#F4EDE7" opacity="0.92"/></g>
    <g transform="translate(440 211) rotate(0) scale(1)"><rect x="-6" y="-6" width="12" height="12" rx="4.5" fill="#F4EDE7" opacity="0.92"/></g>
    <g transform="translate(412 230) rotate(0) scale(1)"><rect x="-6" y="-5" width="12" height="10" rx="4" fill="#F4EDE7" opacity="0.85"/></g>
    <g transform="translate(428.5 230) rotate(0) scale(1)"><rect x="-6" y="-5" width="12" height="10" rx="4" fill="#F4EDE7" opacity="0.85"/></g>
    <path d="M 383 170 Q 377.732 171.732 376 177" fill="none" stroke="#F4EDE7" stroke-width="1" opacity="0.3"/><path d="M 383 170 Q 385.5 164 383 158" fill="none" stroke="#F4EDE7" stroke-width="1" opacity="0.3"/><path d="M 383 170 Q 389.354 170.349 394 166" fill="none" stroke="#F4EDE7" stroke-width="1" opacity="0.3"/><path d="M 383 170 Q 385.839 175.869 392 178" fill="none" stroke="#F4EDE7" stroke-width="1" opacity="0.3"/><path d="M 392 178 Q 389.5 183.5 392 189" fill="none" stroke="#F4EDE7" stroke-width="1" opacity="0.3"/><path d="M 376 177 Q 382.5 185 392 189" fill="none" stroke="#F4EDE7" stroke-width="1" opacity="0.3"/><circle cx="376" cy="177" r="4.2" fill="#E2A3A8" opacity="1"/><circle cx="383" cy="158" r="3.4" fill="#F4EDE7" opacity="0.4"/><circle cx="392" cy="189" r="3.8" fill="#C8836C" opacity="0.4"/><circle cx="394" cy="166" r="3" fill="#F4EDE7" opacity="0.4"/><circle cx="392" cy="178" r="2.6" fill="#E2A3A8" opacity="0.4"/><circle cx="383" cy="170" r="3" fill="#F4EDE7" opacity="0.4"/>
    <text x="420" y="270" text-anchor="middle" font-family="ui-sans-serif, system-ui, sans-serif" font-size="10" letter-spacing="0.08em" fill="#B7A8A8">searching</text>
  </g>
  <g>
    <g transform="translate(540 184) rotate(-2) scale(1)"><rect x="-19" y="-16" width="38" height="32" rx="10" fill="#F4EDE7" opacity="0.97"/><rect x="-14.25" y="3.5" width="5.5" height="3" rx="1.5" fill="#E2A3A8" opacity="0.45"/><rect x="8.75" y="3.5" width="5.5" height="3" rx="1.5" fill="#E2A3A8" opacity="0.45"/><g transform="translate(-5.3 -1.3) scale(1 0.9)"><rect x="-2.25" y="-4" width="4.5" height="8" rx="2.2" fill="#161013"/></g><g transform="translate(7.7 -1.3) scale(1 0.9)"><rect x="-2.25" y="-4" width="4.5" height="8" rx="2.2" fill="#161013"/></g></g>
    <g transform="translate(540 212.5) rotate(0) scale(0.98)"><rect x="-14" y="-12.5" width="28" height="25" rx="7.5" fill="#E4B65A" opacity="0.16"/><rect x="-11" y="-9.5" width="22" height="19" rx="6" fill="#E4B65A" opacity="1"/></g>
    <g transform="translate(523 212) rotate(0) scale(1)"><rect x="-6" y="-6" width="12" height="12" rx="4.5" fill="#F4EDE7" opacity="0.92"/></g>
    <g transform="translate(557 212) rotate(0) scale(1)"><rect x="-6" y="-6" width="12" height="12" rx="4.5" fill="#F4EDE7" opacity="0.92"/></g>
    <g transform="translate(533.5 229) rotate(0) scale(1)"><rect x="-6" y="-5" width="12" height="10" rx="4" fill="#F4EDE7" opacity="0.85"/></g>
    <g transform="translate(546.5 229) rotate(0) scale(1)"><rect x="-6" y="-5" width="12" height="10" rx="4" fill="#F4EDE7" opacity="0.85"/></g>
    
    <text x="540" y="270" text-anchor="middle" font-family="ui-sans-serif, system-ui, sans-serif" font-size="10" letter-spacing="0.08em" fill="#B7A8A8">watching</text>
  </g>
</svg>
